<svg xmlns="http://www.w3.org/2000/svg" xmlns:xlink="http://www.w3.org/1999/xlink" width="1123" zoomAndPan="magnify" viewBox="0 0 842.25 595.499986" height="794" preserveAspectRatio="xMidYMid meet" version="1.0"><defs><g/><clipPath id="cec5d8d80f"><path d="M 34.496094 40.84375 L 229.453125 40.84375 L 229.453125 235.800781 L 34.496094 235.800781 Z M 34.496094 40.84375 " clip-rule="nonzero"/></clipPath><clipPath id="3ced350de5"><path d="M 131.976562 40.84375 C 78.140625 40.84375 34.496094 84.488281 34.496094 138.324219 C 34.496094 192.160156 78.140625 235.800781 131.976562 235.800781 C 185.8125 235.800781 229.453125 192.160156 229.453125 138.324219 C 229.453125 84.488281 185.8125 40.84375 131.976562 40.84375 Z M 131.976562 40.84375 " clip-rule="nonzero"/></clipPath><clipPath id="f34ca5df15"><path d="M 0.496094 0.84375 L 195.453125 0.84375 L 195.453125 195.800781 L 0.496094 195.800781 Z M 0.496094 0.84375 " clip-rule="nonzero"/></clipPath><clipPath id="2fd0b19fdf"><path d="M 97.976562 0.84375 C 44.140625 0.84375 0.496094 44.488281 0.496094 98.324219 C 0.496094 152.160156 44.140625 195.800781 97.976562 195.800781 C 151.8125 195.800781 195.453125 152.160156 195.453125 98.324219 C 195.453125 44.488281 151.8125 0.84375 97.976562 0.84375 Z M 97.976562 0.84375 " clip-rule="nonzero"/></clipPath><clipPath id="d7b61f7496"><rect x="0" width="196" y="0" height="196"/></clipPath><clipPath id="d221d9104e"><path d="M 0.46875 0.226562 L 264 0.226562 L 264 264.710938 L 0.46875 264.710938 Z M 0.46875 0.226562 " clip-rule="nonzero"/></clipPath><clipPath id="ff634e54cf"><path d="M 263.445312 96.628906 L 164.949219 264.8125 L 0.648438 168.589844 L 99.140625 0.410156 Z M 263.445312 96.628906 " clip-rule="nonzero"/></clipPath><clipPath id="f542d41ee8"><path d="M 34 75 L 201 75 L 201 230 L 34 230 Z M 34 75 " clip-rule="nonzero"/></clipPath><clipPath id="b3dabe76a0"><path d="M 263.445312 96.628906 L 164.949219 264.8125 L 0.648438 168.589844 L 99.140625 0.410156 Z M 263.445312 96.628906 " clip-rule="nonzero"/></clipPath><clipPath id="08d2adc292"><path d="M 165.011719 264.710938 L 263.503906 96.527344 L 99.203125 0.308594 L 0.710938 168.488281 Z M 165.011719 264.710938 " clip-rule="nonzero"/></clipPath><clipPath id="6e810c7e33"><path d="M 164.125 264.183594 L 228.960938 153.46875 L 65.34375 57.652344 L 0.503906 168.363281 Z M 164.125 264.183594 " clip-rule="nonzero"/></clipPath><clipPath id="0a2a7e8802"><path d="M 63 35 L 230 35 L 230 190 L 63 190 Z M 63 35 " clip-rule="nonzero"/></clipPath><clipPath id="5cc7fe51c7"><path d="M 263.445312 96.628906 L 164.949219 264.8125 L 0.648438 168.589844 L 99.140625 0.410156 Z M 263.445312 96.628906 " clip-rule="nonzero"/></clipPath><clipPath id="57dc03066b"><path d="M 165.011719 264.710938 L 263.503906 96.527344 L 99.203125 0.308594 L 0.710938 168.488281 Z M 165.011719 264.710938 " clip-rule="nonzero"/></clipPath><clipPath id="0d2fa1bbb2"><path d="M 198.601562 207.347656 L 263.433594 96.644531 L 99.8125 0.820312 L 34.980469 111.523438 Z M 198.601562 207.347656 " clip-rule="nonzero"/></clipPath><clipPath id="fced7021c6"><rect x="0" width="264" y="0" height="265"/></clipPath><clipPath id="6cc2e2ab1d"><path d="M 239 30 L 713.832031 30 L 713.832031 224 L 239 224 Z M 239 30 " clip-rule="nonzero"/></clipPath><clipPath id="d4e215df32"><rect x="0" width="475" y="0" height="194"/></clipPath><clipPath id="101b53bee8"><rect x="0" width="714" y="0" height="265"/></clipPath></defs><g transform="matrix(1, 0, 0, 1, 59, 165)"><g clip-path="url(#101b53bee8)"><g clip-path="url(#cec5d8d80f)"><g clip-path="url(#3ced350de5)"><g transform="matrix(1, 0, 0, 1, 34, 40)"><g clip-path="url(#d7b61f7496)"><g clip-path="url(#f34ca5df15)"><g clip-path="url(#2fd0b19fdf)"><path fill="#ffffff" d="M 0.496094 0.84375 L 195.453125 0.84375 L 195.453125 195.800781 L 0.496094 195.800781 Z M 0.496094 0.84375 " fill-opacity="1" fill-rule="nonzero"/></g></g></g></g></g></g><g clip-path="url(#d221d9104e)"><g clip-path="url(#ff634e54cf)"><g><g clip-path="url(#fced7021c6)"><g clip-path="url(#f542d41ee8)"><g clip-path="url(#b3dabe76a0)"><g clip-path="url(#08d2adc292)"><g clip-path="url(#6e810c7e33)"><path fill="#06e0f8" d="M 39.617188 101.617188 C 39.226562 108.90625 40.628906 115.90625 43.171875 122 C 45.726562 128.109375 49.484375 133.308594 53.769531 137.367188 C 58.054688 141.445312 62.867188 144.355469 67.617188 146.285156 C 72.386719 148.210938 77.125 149.132812 81.460938 149.359375 C 85.804688 149.582031 89.765625 149.136719 93.195312 148.320312 C 96.628906 147.492188 99.539062 146.34375 101.953125 145.171875 C 102.554688 144.871094 103.117188 144.546875 103.660156 144.253906 C 104.199219 143.949219 104.730469 143.699219 105.195312 143.371094 C 106.136719 142.734375 107.011719 142.21875 107.730469 141.65625 C 108.453125 141.101562 109.089844 140.605469 109.632812 140.183594 C 110.160156 139.730469 110.582031 139.328125 110.929688 139.019531 C 111.609375 138.390625 111.964844 138.066406 111.964844 138.066406 C 111.964844 138.066406 111.542969 138.292969 110.730469 138.742188 C 110.324219 138.964844 109.828125 139.25 109.226562 139.5625 C 108.613281 139.851562 107.902344 140.179688 107.097656 140.554688 C 106.304688 140.9375 105.355469 141.242188 104.359375 141.640625 C 103.863281 141.847656 103.3125 141.984375 102.753906 142.164062 C 102.195312 142.328125 101.621094 142.523438 101.011719 142.683594 C 98.5625 143.285156 95.734375 143.804688 92.570312 143.96875 C 89.40625 144.105469 85.917969 143.855469 82.292969 143.039062 C 78.671875 142.222656 74.921875 140.8125 71.332031 138.675781 C 70.457031 138.089844 69.554688 137.546875 68.683594 136.925781 C 68.257812 136.605469 67.816406 136.292969 67.390625 135.964844 C 66.972656 135.621094 66.554688 135.277344 66.132812 134.925781 C 64.484375 133.492188 62.921875 131.894531 61.511719 130.125 C 58.683594 126.582031 56.425781 122.359375 55.121094 117.699219 C 53.828125 113.046875 53.425781 107.984375 54.238281 103 C 54.648438 100.511719 55.316406 98.042969 56.277344 95.660156 C 57.261719 93.304688 58.53125 90.976562 60.035156 88.894531 C 61.542969 86.828125 63.285156 84.917969 65.316406 83.28125 C 67.339844 81.644531 69.59375 80.238281 72.019531 79.09375 C 76.890625 76.855469 82.472656 75.714844 88.035156 75.980469 C 89.425781 76.015625 90.8125 76.199219 92.183594 76.398438 C 93.546875 76.660156 94.910156 76.933594 96.230469 77.347656 C 97.5625 77.714844 98.835938 78.234375 100.101562 78.761719 C 101.339844 79.351562 102.566406 79.953125 103.710938 80.695312 C 104.882812 81.386719 105.957031 82.21875 107.023438 83.054688 C 107.933594 83.875 108.824219 84.6875 109.609375 85.675781 C 110.425781 86.609375 111.144531 87.699219 111.851562 88.820312 C 112.167969 89.425781 112.539062 89.972656 112.832031 90.621094 L 113.304688 91.5625 L 113.734375 92.554688 C 114.890625 95.203125 115.808594 98.21875 116.566406 101.421875 C 116.941406 103.03125 117.28125 104.6875 117.582031 106.398438 L 117.808594 107.6875 L 118.035156 109.023438 C 118.183594 109.914062 118.328125 110.808594 118.464844 111.710938 C 119.5625 118.894531 120.414062 126.246094 121.152344 133.714844 C 121.515625 137.472656 121.878906 141.230469 122.242188 144.988281 L 122.785156 150.675781 L 123.070312 153.53125 L 123.402344 156.589844 C 123.902344 160.71875 124.625 164.9375 125.757812 169.179688 C 126.890625 173.421875 128.398438 177.71875 130.527344 181.863281 C 132.644531 186.003906 135.375 190 138.6875 193.480469 C 139.53125 194.332031 140.40625 195.15625 141.273438 195.980469 C 142.1875 196.75 143.105469 197.515625 144.027344 198.257812 C 145.914062 199.652344 147.839844 200.972656 149.875 202.085938 C 151.882812 203.246094 153.996094 204.171875 156.109375 205.035156 C 158.25 205.828125 160.402344 206.546875 162.59375 207.054688 C 166.960938 208.128906 171.398438 208.585938 175.761719 208.503906 C 180.128906 208.441406 184.429688 207.839844 188.550781 206.71875 C 192.625 205.621094 196.542969 204.078125 200.167969 202.046875 C 169.566406 232.089844 121.542969 239.246094 82.761719 216.535156 C 42.261719 192.816406 25.238281 144.367188 39.621094 101.570312 C 39.621094 101.585938 39.617188 101.601562 39.617188 101.617188 " fill-opacity="1" fill-rule="nonzero"/></g></g></g></g><g clip-path="url(#0a2a7e8802)"><g clip-path="url(#5cc7fe51c7)"><g clip-path="url(#57dc03066b)"><g clip-path="url(#0d2fa1bbb2)"><path fill="#cce235" d="M 224.34375 163.363281 C 224.734375 156.066406 223.328125 149.0625 220.785156 142.964844 C 218.230469 136.851562 214.46875 131.648438 210.179688 127.589844 C 205.890625 123.507812 201.074219 120.601562 196.324219 118.671875 C 191.550781 116.742188 186.8125 115.824219 182.472656 115.601562 C 178.125 115.375 174.164062 115.824219 170.734375 116.640625 C 167.300781 117.472656 164.390625 118.621094 161.972656 119.792969 C 161.371094 120.097656 160.8125 120.421875 160.269531 120.710938 C 159.730469 121.019531 159.199219 121.269531 158.734375 121.601562 C 157.792969 122.234375 156.917969 122.75 156.195312 123.316406 C 155.476562 123.875 154.84375 124.363281 154.292969 124.789062 C 153.769531 125.242188 153.347656 125.644531 153 125.957031 C 152.316406 126.585938 151.964844 126.910156 151.964844 126.910156 C 151.964844 126.910156 152.386719 126.679688 153.203125 126.234375 C 153.609375 126.011719 154.105469 125.722656 154.703125 125.414062 C 155.316406 125.125 156.027344 124.796875 156.835938 124.421875 C 157.628906 124.042969 158.578125 123.738281 159.574219 123.339844 C 160.070312 123.136719 160.621094 122.996094 161.179688 122.816406 C 161.738281 122.652344 162.3125 122.460938 162.921875 122.296875 C 165.367188 121.695312 168.199219 121.183594 171.363281 121.015625 C 174.527344 120.886719 178.015625 121.136719 181.636719 121.953125 C 185.253906 122.773438 189.003906 124.183594 192.589844 126.320312 C 193.460938 126.902344 194.363281 127.449219 195.234375 128.066406 C 195.660156 128.390625 196.101562 128.699219 196.527344 129.03125 C 196.941406 129.375 197.359375 129.71875 197.785156 130.066406 C 199.429688 131.5 200.992188 133.097656 202.402344 134.871094 C 205.222656 138.40625 207.480469 142.628906 208.78125 147.285156 C 210.074219 151.933594 210.472656 156.992188 209.660156 161.972656 C 209.25 164.460938 208.585938 166.925781 207.621094 169.300781 C 206.636719 171.65625 205.375 173.984375 203.871094 176.0625 C 202.363281 178.125 200.625 180.035156 198.59375 181.667969 C 196.570312 183.304688 194.324219 184.714844 191.898438 185.851562 C 187.03125 188.085938 181.453125 189.230469 175.894531 188.96875 C 174.503906 188.929688 173.121094 188.75 171.75 188.550781 C 170.390625 188.285156 169.027344 188.019531 167.707031 187.605469 C 166.375 187.234375 165.101562 186.71875 163.835938 186.1875 C 162.605469 185.601562 161.375 184.996094 160.230469 184.261719 C 159.058594 183.570312 157.984375 182.742188 156.921875 181.902344 L 155.449219 180.582031 L 154.097656 179.148438 C 152.347656 177.179688 150.878906 174.90625 149.664062 172.332031 C 147.207031 167.199219 145.832031 160.894531 145.09375 154.085938 L 144.839844 151.480469 L 144.597656 148.660156 L 144.09375 142.988281 C 143.753906 139.1875 143.414062 135.363281 143.027344 131.515625 C 142.238281 123.820312 141.324219 116.03125 140 108.230469 C 139.839844 107.253906 139.667969 106.28125 139.492188 105.304688 L 139.226562 103.84375 L 138.933594 102.335938 C 138.535156 100.328125 138.078125 98.285156 137.546875 96.230469 C 136.46875 92.113281 135.152344 87.902344 133.171875 83.730469 L 132.421875 82.171875 L 131.59375 80.621094 C 131.0625 79.589844 130.394531 78.578125 129.789062 77.5625 C 128.453125 75.5625 127.035156 73.582031 125.34375 71.773438 C 123.710938 69.925781 121.824219 68.265625 119.886719 66.734375 C 118.003906 65.339844 116.078125 64.019531 114.042969 62.90625 C 112.035156 61.753906 109.925781 60.824219 107.8125 59.964844 C 105.671875 59.171875 103.519531 58.449219 101.328125 57.945312 C 96.960938 56.871094 92.527344 56.417969 88.167969 56.5 C 83.804688 56.5625 79.507812 57.167969 75.386719 58.28125 C 71.324219 59.375 67.414062 60.921875 63.800781 62.945312 C 94.402344 32.917969 142.414062 25.769531 181.183594 48.476562 C 221.667969 72.183594 238.695312 120.605469 224.34375 163.390625 C 224.34375 163.382812 224.34375 163.371094 224.34375 163.363281 " fill-opacity="1" fill-rule="nonzero"/></g></g></g></g></g></g></g></g><g clip-path="url(#6cc2e2ab1d)"><g transform="matrix(1, 0, 0, 1, 239, 30)"><g clip-path="url(#d4e215df32)"><g fill="#104d72" fill-opacity="1"><g transform="translate(0.816761, 80.05617)"><g><path d="M 6.34375 0 L 6.34375 -57.375 L 34.25 -57.375 C 41.320312 -57.3125 46.535156 -55.960938 49.890625 -53.328125 C 53.253906 -50.691406 54.9375 -46.878906 54.9375 -41.890625 C 54.9375 -38.648438 53.976562 -35.851562 52.0625 -33.5 C 50.15625 -31.15625 47.226562 -29.664062 43.28125 -29.03125 L 43.28125 -28.9375 C 47.6875 -28.363281 50.972656 -26.84375 53.140625 -24.375 C 55.316406 -21.914062 56.40625 -18.945312 56.40625 -15.46875 C 56.40625 -10.539062 54.664062 -6.726562 51.1875 -4.03125 C 47.71875 -1.34375 42.503906 0 35.546875 0 Z M 20.78125 -10.515625 L 33.03125 -10.515625 C 35.75 -10.515625 37.773438 -11.066406 39.109375 -12.171875 C 40.441406 -13.273438 41.109375 -14.867188 41.109375 -16.953125 C 41.109375 -18.972656 40.441406 -20.519531 39.109375 -21.59375 C 37.773438 -22.664062 35.75 -23.203125 33.03125 -23.203125 L 20.78125 -23.203125 Z M 20.78125 -33.90625 L 31.640625 -33.90625 C 36.972656 -33.90625 39.640625 -35.988281 39.640625 -40.15625 C 39.640625 -44.332031 36.972656 -46.421875 31.640625 -46.421875 L 20.78125 -46.421875 Z M 20.78125 -33.90625 "/></g></g></g><g fill="#104d72" fill-opacity="1"><g transform="translate(60.271435, 80.05617)"><g><path d="M 21.296875 -57.375 L 21.296875 0 L 6.34375 0 L 6.34375 -57.375 Z M 21.296875 -57.375 "/></g></g></g><g fill="#104d72" fill-opacity="1"><g transform="translate(87.91264, 80.05617)"><g><path d="M 14.953125 -6.265625 L 12.34375 -11.296875 L 52.40625 -11.296875 L 52.40625 0 L 3.21875 0 L 3.21875 -10.78125 L 39.8125 -51.109375 L 42.421875 -46.0625 L 3.828125 -46.0625 L 3.828125 -57.375 L 51.375 -57.375 L 51.375 -46.59375 Z M 14.953125 -6.265625 "/></g></g></g><g fill="#104d72" fill-opacity="1"><g transform="translate(143.021207, 80.05617)"><g><path d="M 17.390625 0 L 0.875 -57.375 L 16.78125 -57.375 L 26.515625 -12.078125 L 36.765625 -57.375 L 50.328125 -57.375 L 60.84375 -12.171875 L 70.40625 -57.375 L 85.796875 -57.375 L 69.1875 0 L 52.9375 0 L 46.15625 -27.8125 L 43.546875 -41.8125 L 43.375 -41.8125 L 40.859375 -27.8125 L 34.15625 0 Z M 17.390625 0 "/></g></g></g><g fill="#104d72" fill-opacity="1"><g transform="translate(229.682478, 80.05617)"><g><path d="M 21.296875 -57.375 L 21.296875 0 L 6.34375 0 L 6.34375 -57.375 Z M 21.296875 -57.375 "/></g></g></g><g fill="#104d72" fill-opacity="1"><g transform="translate(257.323683, 80.05617)"><g><path d="M 54.59375 -57.375 L 54.59375 -45.8125 L 35.90625 -45.8125 L 35.90625 0 L 20.953125 0 L 20.953125 -45.8125 L 2.171875 -45.8125 L 2.171875 -57.375 Z M 54.59375 -57.375 "/></g></g></g><g fill="#104d72" fill-opacity="1"><g transform="translate(0.816761, 172.479411)"><g><path d="M 32.375 -55.078125 C 38.945312 -55.078125 44.050781 -53.53125 47.6875 -50.4375 C 51.332031 -47.351562 53.15625 -43.253906 53.15625 -38.140625 C 53.15625 -32.515625 51.347656 -28.226562 47.734375 -25.28125 C 44.117188 -22.332031 39.03125 -20.859375 32.46875 -20.859375 L 31.125 -20.109375 L 20.203125 -20.109375 L 20.203125 0 L 6.09375 0 L 6.09375 -55.078125 Z M 30.375 -30.296875 C 33.15625 -30.296875 35.238281 -30.847656 36.625 -31.953125 C 38.019531 -33.066406 38.71875 -34.847656 38.71875 -37.296875 C 38.71875 -39.691406 38.019531 -41.445312 36.625 -42.5625 C 35.238281 -43.675781 33.15625 -44.234375 30.375 -44.234375 L 20.203125 -44.234375 L 20.203125 -30.296875 Z M 38.8125 -27.296875 L 56.421875 0 L 40.5625 0 L 26.453125 -24.125 Z M 38.8125 -27.296875 "/></g></g></g><g fill="#104d72" fill-opacity="1"><g transform="translate(58.305299, 172.479411)"><g><path d="M 6.09375 0 L 6.09375 -55.078125 L 48.984375 -55.078125 L 48.984375 -43.984375 L 20.453125 -43.984375 L 20.453125 -32.796875 L 43.140625 -32.796875 L 43.140625 -22.359375 L 20.453125 -22.359375 L 20.453125 -11.09375 L 50.078125 -11.09375 L 50.078125 0 Z M 6.09375 0 "/></g></g></g><g fill="#104d72" fill-opacity="1"><g transform="translate(110.954452, 172.479411)"><g><path d="M 27.625 -55.90625 C 32.738281 -55.90625 37.253906 -55.113281 41.171875 -53.53125 C 45.097656 -51.945312 48.507812 -49.625 51.40625 -46.5625 L 44.484375 -37.296875 C 42.085938 -39.804688 39.507812 -41.6875 36.75 -42.9375 C 34 -44.1875 30.875 -44.8125 27.375 -44.8125 C 25.3125 -44.8125 23.640625 -44.585938 22.359375 -44.140625 C 21.085938 -43.703125 20.171875 -43.09375 19.609375 -42.3125 C 19.054688 -41.53125 18.78125 -40.640625 18.78125 -39.640625 C 18.78125 -38.472656 19.320312 -37.484375 20.40625 -36.671875 C 21.488281 -35.867188 23.253906 -35.191406 25.703125 -34.640625 L 34.96875 -32.546875 C 40.476562 -31.265625 44.507812 -29.398438 47.0625 -26.953125 C 49.625 -24.503906 50.90625 -21.25 50.90625 -17.1875 C 50.90625 -13.289062 49.898438 -9.992188 47.890625 -7.296875 C 45.890625 -4.597656 43.132812 -2.566406 39.625 -1.203125 C 36.125 0.148438 32.125 0.828125 27.625 0.828125 C 23.945312 0.828125 20.4375 0.425781 17.09375 -0.375 C 13.757812 -1.175781 10.757812 -2.328125 8.09375 -3.828125 C 5.425781 -5.335938 3.171875 -7.066406 1.328125 -9.015625 L 8.265625 -18.609375 C 9.648438 -16.992188 11.359375 -15.5625 13.390625 -14.3125 C 15.421875 -13.0625 17.644531 -12.070312 20.0625 -11.34375 C 22.488281 -10.625 24.953125 -10.265625 27.453125 -10.265625 C 29.398438 -10.265625 31.023438 -10.457031 32.328125 -10.84375 C 33.640625 -11.238281 34.601562 -11.820312 35.21875 -12.59375 C 35.832031 -13.375 36.140625 -14.296875 36.140625 -15.359375 C 36.140625 -16.523438 35.71875 -17.507812 34.875 -18.3125 C 34.039062 -19.125 32.457031 -19.804688 30.125 -20.359375 L 19.9375 -22.609375 C 16.820312 -23.335938 14.054688 -24.300781 11.640625 -25.5 C 9.222656 -26.695312 7.316406 -28.304688 5.921875 -30.328125 C 4.535156 -32.359375 3.84375 -34.90625 3.84375 -37.96875 C 3.84375 -41.414062 4.785156 -44.488281 6.671875 -47.1875 C 8.566406 -49.882812 11.296875 -52.007812 14.859375 -53.5625 C 18.421875 -55.125 22.675781 -55.90625 27.625 -55.90625 Z M 27.625 -55.90625 "/></g></g></g><g fill="#104d72" fill-opacity="1"><g transform="translate(164.77173, 172.479411)"><g><path d="M 6.09375 0 L 6.09375 -55.078125 L 48.984375 -55.078125 L 48.984375 -43.984375 L 20.453125 -43.984375 L 20.453125 -32.796875 L 43.140625 -32.796875 L 43.140625 -22.359375 L 20.453125 -22.359375 L 20.453125 -11.09375 L 50.078125 -11.09375 L 50.078125 0 Z M 6.09375 0 "/></g></g></g><g fill="#104d72" fill-opacity="1"><g transform="translate(217.420883, 172.479411)"><g><path d="M 56.15625 0 L 41.390625 0 L 37.546875 -12.4375 L 18.6875 -12.4375 L 14.765625 0 L 0.328125 0 L 19.6875 -55.078125 L 36.890625 -55.078125 Z M 21.359375 -22.203125 L 34.890625 -22.203125 L 28.125 -44.484375 Z M 21.359375 -22.203125 "/></g></g></g><g fill="#104d72" fill-opacity="1"><g transform="translate(273.908155, 172.479411)"><g><path d="M 32.375 -55.078125 C 38.945312 -55.078125 44.050781 -53.53125 47.6875 -50.4375 C 51.332031 -47.351562 53.15625 -43.253906 53.15625 -38.140625 C 53.15625 -32.515625 51.347656 -28.226562 47.734375 -25.28125 C 44.117188 -22.332031 39.03125 -20.859375 32.46875 -20.859375 L 31.125 -20.109375 L 20.203125 -20.109375 L 20.203125 0 L 6.09375 0 L 6.09375 -55.078125 Z M 30.375 -30.296875 C 33.15625 -30.296875 35.238281 -30.847656 36.625 -31.953125 C 38.019531 -33.066406 38.71875 -34.847656 38.71875 -37.296875 C 38.71875 -39.691406 38.019531 -41.445312 36.625 -42.5625 C 35.238281 -43.675781 33.15625 -44.234375 30.375 -44.234375 L 20.203125 -44.234375 L 20.203125 -30.296875 Z M 38.8125 -27.296875 L 56.421875 0 L 40.5625 0 L 26.453125 -24.125 Z M 38.8125 -27.296875 "/></g></g></g><g fill="#104d72" fill-opacity="1"><g transform="translate(330.812486, 172.479411)"><g><path d="M 54.90625 -15.765625 C 53.851562 -11.929688 52.15625 -8.773438 49.8125 -6.296875 C 47.476562 -3.828125 44.695312 -2.019531 41.46875 -0.875 C 38.25 0.257812 34.691406 0.828125 30.796875 0.828125 C 25.234375 0.828125 20.421875 -0.296875 16.359375 -2.546875 C 12.296875 -4.796875 9.175781 -8.035156 7 -12.265625 C 4.832031 -16.492188 3.75 -21.585938 3.75 -27.546875 C 3.75 -33.492188 4.832031 -38.582031 7 -42.8125 C 9.175781 -47.039062 12.296875 -50.28125 16.359375 -52.53125 C 20.421875 -54.78125 25.203125 -55.90625 30.703125 -55.90625 C 34.546875 -55.90625 38.082031 -55.363281 41.3125 -54.28125 C 44.539062 -53.195312 47.265625 -51.539062 49.484375 -49.3125 C 51.710938 -47.09375 53.300781 -44.226562 54.25 -40.71875 L 41.640625 -35.640625 C 40.859375 -39.085938 39.59375 -41.445312 37.84375 -42.71875 C 36.09375 -44 33.882812 -44.640625 31.21875 -44.640625 C 28.601562 -44.640625 26.332031 -44 24.40625 -42.71875 C 22.488281 -41.445312 21.015625 -39.546875 19.984375 -37.015625 C 18.953125 -34.484375 18.4375 -31.328125 18.4375 -27.546875 C 18.4375 -23.816406 18.910156 -20.671875 19.859375 -18.109375 C 20.804688 -15.546875 22.238281 -13.625 24.15625 -12.34375 C 26.070312 -11.070312 28.453125 -10.4375 31.296875 -10.4375 C 33.960938 -10.4375 36.226562 -11.171875 38.09375 -12.640625 C 39.957031 -14.117188 41.222656 -16.382812 41.890625 -19.4375 Z M 54.90625 -15.765625 "/></g></g></g><g fill="#104d72" fill-opacity="1"><g transform="translate(387.633497, 172.479411)"><g><path d="M 55.828125 -55.078125 L 55.828125 0 L 41.46875 0 L 41.46875 -55.078125 Z M 20.453125 -55.078125 L 20.453125 0 L 6.09375 0 L 6.09375 -55.078125 Z M 49.15625 -33.296875 L 49.15625 -22.203125 L 13.109375 -22.203125 L 13.109375 -33.296875 Z M 49.15625 -33.296875 "/></g></g></g><g fill="#104d72" fill-opacity="1"><g transform="translate(449.546266, 172.479411)"><g/></g></g></g></g></g><path stroke-linecap="butt" transform="matrix(0.749615, 0, 0, 0.749615, 246.290382, 127.366368)" fill="none" stroke-linejoin="miter" d="M -0.00176017 2.997423 L 558.639043 2.997423 " stroke="#abdd1c" stroke-width="6" stroke-opacity="1" stroke-miterlimit="4"/></g></g></svg>