<svg width="690" height="213" xmlns="http://www.w3.org/2000/svg">

 <g>
  <title>Layer 1</title>
  <g>
   <defs transform="translate(0 1) translate(0 1) translate(0 1) translate(0 1) translate(0 1) translate(0 1) translate(0 1) translate(0 -1) translate(0 -1) translate(0 -1) translate(0 -1) translate(0 -1) translate(0 -1) translate(0 -1) translate(0 -1) translate(0 -1) translate(0 -1) translate(0 -1) translate(0 -1) translate(0 -1) translate(0 -1) translate(0 -1) translate(0 -1) translate(0 -1) translate(0 -1) translate(0 -1) translate(0 -1) translate(0 -1) translate(0 -1) translate(0 -1) translate(0 -1) translate(0 -1) translate(0 -1) translate(0 -1) translate(0 -1) translate(0 -1) translate(0 -1) translate(0 -1) translate(0 -1) translate(0 -1) translate(0 -1) translate(0 -1) translate(0 -1) translate(0 -1) translate(0 -1) translate(0 -1) translate(0 -1) translate(0 -1) translate(0 -1) translate(0 -1) translate(0 -1) translate(0 -1) translate(0 -1) translate(0 -1) translate(0 -1) translate(0 -1) translate(0 -1) translate(0 -1) translate(0 -1) translate(0 -1) translate(0 -1) translate(0 -1) translate(0 -1) translate(0 -1) translate(0 -1) translate(0 -1) translate(0 -1) translate(0 -1) translate(0 -1) translate(0 -1) translate(0 -1) translate(0 -1) translate(0 -1) translate(0 -1) translate(0 -1) translate(0 -1) translate(0 -1) translate(0 -1) translate(0 -1) translate(0 -1) translate(0 -1) translate(0 -1) translate(0 -1) translate(0 -1) translate(0 -1) translate(0 -1) translate(0 -1) translate(0 -1) translate(0 -1) translate(0 -1) translate(0 -1) translate(0 -1) translate(0 -1) translate(0 -1) translate(0 -1) translate(0 -1) translate(0 -1) translate(0 -1) translate(0 -1) translate(0 -1) translate(0 -1) translate(0 -1) translate(0 -1) translate(0 -1) translate(0 -1) translate(0 -1) translate(0 -1) translate(0 -1) translate(0 -1) translate(0 -1) translate(0 -1) translate(0 -1) translate(0 -1) translate(0 -1) translate(0 -1) translate(0 -1) translate(0 -1) translate(0 -1) translate(0 -1) translate(0 -1) translate(0 -1) translate(0 -1) translate(0 -1) translate(0 -1) translate(0 -1) translate(0 -1) translate(0 -1) translate(0 -1) translate(0 -1) translate(0 -1) translate(0 -1) translate(0 -1) translate(0 -1) translate(0 -1) translate(0 -1) translate(0 -1) translate(0 -1) translate(0 -1) translate(0 -1) translate(0 -1) translate(0 -1) translate(0 -1) translate(0 -1) translate(0 -1) translate(0 -1) translate(0 -1) translate(0 -1) translate(0 -1) translate(0 -1) translate(0 -1) translate(0 -1) translate(0 -1) translate(0 -1) translate(0 -1) translate(0 -1) translate(0 -1) translate(0 -1) translate(0 -1) translate(0 -1) translate(0 -1) translate(0 -1) translate(0 -1) translate(0 -1) translate(0 -1) translate(0 -1) translate(0 -1) translate(0 -1) translate(0 -1) translate(0 -1) translate(0 -1) translate(0 -1) translate(0 -1) translate(0 -1) translate(0 -1) translate(0 -1) translate(0 -1) translate(0 -1) translate(0 -1) translate(0 -1) translate(0 -1) translate(0 -1) translate(0 -1) translate(0 -1) translate(0 -1) translate(0 -1) translate(0 -1) translate(0 -1) translate(0 -1) translate(0 -1) translate(0 -1) translate(0 -1) translate(0 -1) translate(0 -1) translate(0 -1) translate(0 -1) translate(0 -1) translate(0 -1) translate(0 -1) translate(0 -1) translate(0 -1) translate(0 -1) translate(0 -1) translate(0 -1) translate(0 -1) translate(0 -1) translate(0 -1) translate(0 -1) translate(0 -1) translate(0 -1) translate(0 -1) translate(0 -1) translate(0 -1) translate(0 -1) translate(0 -1) translate(0 -1) translate(0 -1) translate(0 -1) translate(0 -1) translate(0 -1) translate(0 -1) translate(0 -1) translate(0 -1) translate(0 -1) translate(0 -1) translate(0 -1) translate(0 -1) translate(0 -1) translate(0 -1) translate(0 -1) translate(0 -1) translate(0 -1) translate(0 -1) translate(0 -1) translate(0 -1) translate(0 -1) translate(0 -1) translate(0 -1) translate(0 -1) translate(0 -1) translate(0 -1) translate(0 1) translate(0 1) translate(0 1) translate(0 1) translate(0 1) translate(0 1) translate(0 1) translate(0 1) translate(0 1) translate(0 1) translate(0 1) translate(0 1) translate(0 1) translate(0 1) translate(0 1) translate(0 1) translate(0 1) translate(0 1) translate(0 1) translate(0 1) translate(0 1) translate(0 1) translate(0 1) translate(0 1) translate(0 1) translate(0 1) translate(0 1) translate(0 1) translate(0 1) translate(0 1) translate(0 1) translate(0 1) translate(0 1) translate(0 1) translate(-56 0) translate(-17.4789 0) translate(0 -0.456467)">
    <g/>
    <clipPath id="svg_15">
     <path clip-rule="nonzero" d="m-38.98276,-151.61272l194.95704,0l0,194.95703l-194.95704,0l0,-194.95703zm0,0"/>
    </clipPath>
    <clipPath id="svg_16">
     <path clip-rule="nonzero" d="m58.49771,-151.61272c-53.83593,0 -97.48047,43.64453 -97.48047,97.48047c0,53.83594 43.64454,97.47656 97.48047,97.47656c53.83594,0 97.47657,-43.64062 97.47657,-97.47656c0,-53.83594 -43.64063,-97.48047 -97.47657,-97.48047zm0,0"/>
    </clipPath>
    <clipPath id="svg_18">
     <path clip-rule="nonzero" d="m-72.98276,-191.61272l194.95704,0l0,194.95703l-194.95704,0l0,-194.95703zm0,0"/>
    </clipPath>
    <clipPath id="svg_19">
     <path clip-rule="nonzero" d="m24.49771,-191.61272c-53.83593,0 -97.48047,43.64453 -97.48047,97.48047c0,53.83594 43.64454,97.47656 97.48047,97.47656c53.83594,0 97.47657,-43.64062 97.47657,-97.47656c0,-53.83594 -43.64063,-97.48047 -97.47657,-97.48047zm0,0"/>
    </clipPath>
    <clipPath id="svg_17">
     <rect height="196" y="-192.45647" width="196" x="-73.47885"/>
    </clipPath>
    <clipPath id="svg_4">
     <path clip-rule="nonzero" d="m-73.0101,-192.22991l263.53125,0l0,264.48438l-263.53125,0l0,-264.48438zm0,0"/>
    </clipPath>
    <clipPath id="svg_5">
     <path clip-rule="nonzero" d="m189.96646,-95.82756l-98.49609,168.18359l-164.30078,-96.22266l98.49219,-168.17968l164.30468,96.21875zm0,0"/>
    </clipPath>
    <clipPath id="svg_11">
     <path clip-rule="nonzero" d="m-39.47885,-117.45647l167,0l0,155l-167,0l0,-155zm0,0"/>
    </clipPath>
    <clipPath id="svg_12">
     <path clip-rule="nonzero" d="m189.96646,-95.82756l-98.49609,168.18359l-164.30078,-96.22266l98.49219,-168.17968l164.30468,96.21875zm0,0"/>
    </clipPath>
    <clipPath id="svg_13">
     <path clip-rule="nonzero" d="m91.53287,72.25447l98.49219,-168.1836l-164.30078,-96.21875l-98.49219,168.17969l164.30078,96.22266zm0,0"/>
    </clipPath>
    <clipPath id="svg_14">
     <path clip-rule="nonzero" d="m90.64615,71.72712l64.83594,-110.71484l-163.61719,-95.81641l-64.83984,110.71094l163.62109,95.82031zm0,0"/>
    </clipPath>
    <clipPath id="svg_7">
     <path clip-rule="nonzero" d="m-10.47885,-157.45647l167,0l0,155l-167,0l0,-155zm0,0"/>
    </clipPath>
    <clipPath id="svg_8">
     <path clip-rule="nonzero" d="m189.96646,-95.82756l-98.49609,168.18359l-164.30078,-96.22266l98.49219,-168.17968l164.30468,96.21875zm0,0"/>
    </clipPath>
    <clipPath id="svg_9">
     <path clip-rule="nonzero" d="m91.53287,72.25447l98.49219,-168.1836l-164.30078,-96.21875l-98.49219,168.17969l164.30078,96.22266zm0,0"/>
    </clipPath>
    <clipPath id="svg_10">
     <path clip-rule="nonzero" d="m125.12271,14.89119l64.83203,-110.70313l-163.62109,-95.82422l-64.83203,110.70313l163.62109,95.82422zm0,0"/>
    </clipPath>
    <clipPath id="svg_6">
     <rect height="265" y="-192.45647" width="264" x="-73.47885"/>
    </clipPath>
    <clipPath id="svg_2">
     <path clip-rule="nonzero" d="m165.52115,-162.45647l474.83203,0l0,194l-474.83203,0l0,-194zm0,0"/>
    </clipPath>
    <clipPath id="svg_3">
     <rect height="194" y="-192.45647" width="475" x="-73.47885"/>
    </clipPath>
    <clipPath id="svg_1">
     <rect height="265" y="-192.45647" width="714" x="-73.47885"/>
    </clipPath>
   </defs>
   <g transform="matrix(1 0 0 1 59 165)">
    <g clip-path="url(#svg_1)">
     <g clip-path="url(#svg_15)">
      <g clip-path="url(#svg_16)">
       <g transform="matrix(1 0 0 1 34 40)">
        <g clip-path="url(#svg_17)">
         <g clip-path="url(#svg_18)">
          <g clip-path="url(#svg_19)">
           <path fill-rule="nonzero" d="m-72.98276,-191.61272l194.95704,0l0,194.95703l-194.95704,0l0,-194.95703zm0,0" fill="#ffffff"/>
          </g>
         </g>
        </g>
       </g>
      </g>
     </g>
     <g clip-path="url(#svg_4)">
      <g clip-path="url(#svg_5)">
       <g>
        <g clip-path="url(#svg_6)">
         <g clip-path="url(#svg_11)">
          <g clip-path="url(#svg_12)">
           <g clip-path="url(#svg_13)">
            <g clip-path="url(#svg_14)">
             <path fill-rule="nonzero" d="m-33.86166,-90.83928c-0.39063,7.28906 1.01172,14.28906 3.55469,20.38281c2.55468,6.10938 6.3125,11.30859 10.59765,15.36719c4.28516,4.07812 9.09766,6.98828 13.84766,8.91797c4.76953,1.92578 9.50781,2.84765 13.84375,3.07422c4.34375,0.22265 8.30469,-0.22266 11.73437,-1.03907c3.4336,-0.82812 6.34375,-1.97656 8.75782,-3.14843c0.60156,-0.30079 1.16406,-0.625 1.70703,-0.91797c0.53906,-0.30469 1.07031,-0.55469 1.53515,-0.88282c0.94141,-0.63671 1.81641,-1.15234 2.53516,-1.71484c0.72266,-0.55469 1.35937,-1.05078 1.90234,-1.47266c0.52735,-0.45312 0.94922,-0.85546 1.29688,-1.16406c0.67969,-0.6289 1.03515,-0.95312 1.03515,-0.95312c0,0 -0.42187,0.22656 -1.23437,0.67578c-0.40625,0.22265 -0.90234,0.50781 -1.50391,0.82031c-0.61328,0.28906 -1.32422,0.61719 -2.1289,0.99219c-0.79297,0.38281 -1.74219,0.6875 -2.73828,1.08594c-0.4961,0.20703 -1.04688,0.34375 -1.60547,0.52343c-0.5586,0.16407 -1.13282,0.35938 -1.74219,0.51953c-2.44922,0.60157 -5.27734,1.1211 -8.44141,1.28516c-3.16406,0.13672 -6.65234,-0.11328 -10.27734,-0.92969c-3.62109,-0.8164 -7.37109,-2.22656 -10.96094,-4.36328c-0.875,-0.58594 -1.77734,-1.1289 -2.64844,-1.75c-0.42578,-0.32031 -0.86718,-0.63281 -1.29296,-0.96094c-0.41797,-0.34375 -0.83594,-0.6875 -1.25782,-1.03906c-1.64843,-1.43359 -3.21093,-3.03125 -4.62109,-4.80078c-2.82813,-3.54297 -5.08594,-7.76562 -6.39063,-12.42578c-1.29296,-4.65234 -1.69531,-9.71484 -0.88281,-14.69922c0.41016,-2.48828 1.07813,-4.95703 2.03906,-7.33984c0.98438,-2.35547 2.25391,-4.6836 3.75782,-6.76563c1.50781,-2.0664 3.25,-3.97656 5.28125,-5.61328c2.02343,-1.63672 4.27734,-3.04297 6.70312,-4.1875c4.8711,-2.23828 10.45313,-3.37891 16.01563,-3.11328c1.39062,0.03516 2.77734,0.21875 4.14843,0.41797c1.36329,0.26172 2.72657,0.53515 4.04688,0.94922c1.33203,0.36718 2.60547,0.88672 3.87109,1.41406c1.23828,0.58984 2.46485,1.19141 3.60938,1.93359c1.17187,0.69141 2.24609,1.52344 3.3125,2.35938c0.91015,0.82031 1.80078,1.63281 2.58594,2.62109c0.8164,0.9336 1.53515,2.02344 2.24218,3.14453c0.31641,0.60547 0.6875,1.15235 0.98047,1.80078l0.47266,0.94141l0.42969,0.99219c1.15625,2.64844 2.07421,5.66406 2.83203,8.86719c0.375,1.60937 0.71484,3.26562 1.01562,4.97656l0.22656,1.28906l0.22657,1.33594c0.14843,0.89062 0.29297,1.78515 0.42968,2.6875c1.09766,7.18359 1.94922,14.53515 2.6875,22.0039c0.36329,3.75782 0.72657,7.51563 1.08985,11.27344l0.54297,5.6875l0.28515,2.85547l0.33203,3.05859c0.5,4.12891 1.22266,8.34766 2.35547,12.58985c1.13282,4.24219 2.64063,8.53906 4.76953,12.68359c2.11719,4.14063 4.84766,8.13672 8.16016,11.61719c0.84375,0.85156 1.71875,1.67578 2.58594,2.5c0.91406,0.76953 1.83203,1.53516 2.7539,2.27734c1.88672,1.39453 3.8125,2.71485 5.84766,3.82813c2.00781,1.16015 4.12109,2.08594 6.23438,2.94922c2.14062,0.79297 4.29296,1.51172 6.48437,2.01953c4.36719,1.07422 8.80469,1.53125 13.16797,1.44922c4.36719,-0.0625 8.66797,-0.66407 12.78906,-1.78516c4.07422,-1.09766 7.99219,-2.64062 11.61719,-4.67187c-30.60156,30.04296 -78.625,37.19921 -117.40625,14.48828c-40.5,-23.71875 -57.52344,-72.16797 -43.14063,-114.96485c0,0.01563 -0.0039,0.03125 -0.0039,0.04688" fill="#06e0f8"/>
            </g>
           </g>
          </g>
         </g>
         <g clip-path="url(#svg_7)">
          <g clip-path="url(#svg_8)">
           <g clip-path="url(#svg_9)">
            <g clip-path="url(#svg_10)">
             <path fill-rule="nonzero" d="m150.8649,-29.09319c0.39063,-7.29687 -1.01562,-14.30078 -3.55859,-20.39844c-2.55469,-6.11328 -6.31641,-11.3164 -10.60547,-15.375c-4.28906,-4.08203 -9.10547,-6.98828 -13.85547,-8.91796c-4.77344,-1.92969 -9.51172,-2.84766 -13.85156,-3.07032c-4.34766,-0.22656 -8.3086,0.22266 -11.73828,1.03907c-3.4336,0.83203 -6.34375,1.98046 -8.76172,3.15234c-0.60157,0.30469 -1.16016,0.62891 -1.70313,0.91797c-0.53906,0.30859 -1.07031,0.55859 -1.53515,0.89062c-0.94141,0.63282 -1.81641,1.14844 -2.53907,1.71485c-0.71875,0.55859 -1.35156,1.04687 -1.90234,1.47265c-0.52344,0.45313 -0.94531,0.85547 -1.29297,1.16797c-0.68359,0.62891 -1.03516,0.95313 -1.03516,0.95313c0,0 0.42188,-0.23047 1.23829,-0.67578c0.40625,-0.22266 0.90234,-0.51172 1.5,-0.82032c0.61328,-0.28906 1.32421,-0.61718 2.13281,-0.99218c0.79297,-0.37891 1.74219,-0.6836 2.73828,-1.08204c0.49609,-0.20312 1.04687,-0.34375 1.60547,-0.52343c0.55859,-0.16407 1.13281,-0.35547 1.74219,-0.51953c2.44531,-0.60157 5.27734,-1.11329 8.4414,-1.28125c3.16406,-0.12891 6.65235,0.12109 10.27344,0.9375c3.61719,0.82031 7.36719,2.23046 10.95312,4.36718c0.8711,0.58203 1.77344,1.12891 2.64454,1.7461c0.42578,0.32422 0.86718,0.63281 1.29296,0.96484c0.41407,0.34375 0.83204,0.6875 1.25782,1.03516c1.64453,1.43359 3.20703,3.03125 4.61718,4.80468c2.82032,3.53516 5.07813,7.75782 6.37891,12.41407c1.29297,4.64843 1.69141,9.70703 0.87891,14.6875c-0.41016,2.48828 -1.07422,4.95312 -2.03907,7.32812c-0.98437,2.35547 -2.24609,4.6836 -3.75,6.76172c-1.50781,2.0625 -3.24609,3.97266 -5.27734,5.60547c-2.02344,1.63672 -4.26953,3.04687 -6.69531,4.18359c-4.86719,2.23438 -10.44531,3.37891 -16.00391,3.11719c-1.39062,-0.03906 -2.77344,-0.21875 -4.14453,-0.41797c-1.35937,-0.26562 -2.72266,-0.53125 -4.04297,-0.94531c-1.33203,-0.37109 -2.60547,-0.88672 -3.87109,-1.41797c-1.23047,-0.58594 -2.46094,-1.19141 -3.60547,-1.92578c-1.17188,-0.69141 -2.24609,-1.51953 -3.30859,-2.35938l-1.47266,-1.32031l-1.35156,-1.43359c-1.75,-1.96875 -3.21875,-4.24219 -4.4336,-6.81641c-2.45703,-5.13281 -3.83203,-11.4375 -4.57031,-18.24609l-0.25391,-2.60547l-0.24218,-2.82031l-0.50391,-5.67188c-0.33984,-3.80078 -0.67969,-7.625 -1.06641,-11.47265c-0.78906,-7.69532 -1.70312,-15.48438 -3.02734,-23.28516c-0.16016,-0.97656 -0.33203,-1.94922 -0.50781,-2.92578l-0.26563,-1.46094l-0.29297,-1.50781c-0.39843,-2.00781 -0.85546,-4.05078 -1.38671,-6.10547c-1.07813,-4.11719 -2.39454,-8.32813 -4.375,-12.5l-0.75,-1.55859l-0.82813,-1.55079c-0.53125,-1.03125 -1.19922,-2.04296 -1.80469,-3.05859c-1.33593,-2 -2.7539,-3.98047 -4.44531,-5.78906c-1.63281,-1.84766 -3.51953,-3.50781 -5.45703,-5.03906c-1.88281,-1.39454 -3.80859,-2.71485 -5.84375,-3.82813c-2.00781,-1.15234 -4.11719,-2.08203 -6.23047,-2.94141c-2.14062,-0.79296 -4.29297,-1.51562 -6.48437,-2.01953c-4.36719,-1.07422 -8.80079,-1.52734 -13.16016,-1.44531c-4.36328,0.0625 -8.66016,0.66797 -12.78125,1.78125c-4.0625,1.09375 -7.97266,2.64063 -11.58594,4.66406c30.60156,-30.02734 78.61328,-37.17578 117.38281,-14.46875c40.48438,23.70703 57.51172,72.12891 43.16016,114.91407c0,-0.00782 0,-0.01954 0,-0.02735" fill="#cce235"/>
            </g>
           </g>
          </g>
         </g>
        </g>
       </g>
      </g>
     </g>
     <g clip-path="url(#svg_2)">
      <g transform="matrix(1 0 0 1 239 30)">
       <g clip-path="url(#svg_3)">
        <g fill="#104d72">
         <g transform="translate(0.816761 80.0562)">
          <g>
           <path d="m-67.1351,-192.45647l0,-57.375l27.90625,0c7.07031,0.0625 12.28516,1.41406 15.64063,4.04687c3.36328,2.63672 5.04687,6.44922 5.04687,11.4375c0,3.24219 -0.96094,6.03907 -2.875,8.39063c-1.90625,2.34375 -4.83594,3.83594 -8.78125,4.46875l0,0.09375c4.40625,0.57422 7.69141,2.09375 9.85938,4.5625c2.17578,2.46094 3.26562,5.42969 3.26562,8.90625c0,4.92969 -1.74219,8.74219 -5.21875,11.4375c-3.46875,2.6875 -8.68359,4.03125 -15.64062,4.03125l-29.20313,0zm14.4375,-10.51563l12.25,0c2.71875,0 4.74219,-0.55078 6.07813,-1.65625c1.33203,-1.10156 2,-2.69531 2,-4.78125c0,-2.01953 -0.66797,-3.5664 -2,-4.64062c-1.33594,-1.07031 -3.35938,-1.60938 -6.07813,-1.60938l-12.25,0l0,12.6875zm0,-23.39062l10.85938,0c5.33203,0 8,-2.08203 8,-6.25c0,-4.17578 -2.66797,-6.26563 -8,-6.26563l-10.85938,0l0,12.51563zm0,0"/>
          </g>
         </g>
        </g>
        <g fill="#104d72">
         <g transform="translate(60.2714 80.0562)">
          <g>
           <path d="m-52.18197,-249.83147l0,57.375l-14.95313,0l0,-57.375l14.95313,0zm0,0"/>
          </g>
         </g>
        </g>
        <g fill="#104d72">
         <g transform="translate(87.9126 80.0562)">
          <g>
           <path d="m-58.52572,-198.7221l-2.60938,-5.03125l40.0625,0l0,11.29688l-49.1875,0l0,-10.78125l36.59375,-40.32813l2.60938,5.04688l-38.59375,0l0,-11.3125l47.54687,0l0,10.78125l-36.42187,40.32812zm0,0"/>
          </g>
         </g>
        </g>
        <g fill="#104d72">
         <g transform="translate(143.021 80.0562)">
          <g>
           <path d="m-56.08822,-192.45647l-16.51563,-57.375l15.90625,0l9.73438,45.29687l10.25,-45.29687l13.5625,0l10.51562,45.20312l9.5625,-45.20312l15.39063,0l-16.60938,57.375l-16.25,0l-6.78125,-27.8125l-2.60937,-14l-0.17188,0l-2.51562,14l-6.70313,27.8125l-16.76562,0zm0,0"/>
          </g>
         </g>
        </g>
        <g fill="#104d72">
         <g transform="translate(229.682 80.0562)">
          <g>
           <path d="m-52.18197,-249.83147l0,57.375l-14.95313,0l0,-57.375l14.95313,0zm0,0"/>
          </g>
         </g>
        </g>
        <g fill="#104d72">
         <g transform="translate(257.324 80.0562)">
          <g>
           <path d="m-18.8851,-249.83147l0,11.5625l-18.6875,0l0,45.8125l-14.95312,0l0,-45.8125l-18.78125,0l0,-11.5625l52.42187,0zm0,0"/>
          </g>
         </g>
        </g>
        <g fill="#104d72">
         <g transform="translate(0.816761 172.479)">
          <g>
           <path d="m-41.10385,-247.5346c6.57031,0 11.67578,1.54688 15.3125,4.64063c3.64453,3.08594 5.46875,7.18359 5.46875,12.29687c0,5.625 -1.80859,9.91407 -5.42187,12.85938c-3.61719,2.94922 -8.70313,4.42187 -15.26563,4.42187l-1.34375,0.75l-10.92187,0l0,20.10938l-14.10938,0l0,-55.07813l26.28125,0zm-2,24.78125c2.78125,0 4.86328,-0.55078 6.25,-1.65625c1.39453,-1.11328 2.09375,-2.89453 2.09375,-5.34375c0,-2.39453 -0.69922,-4.14843 -2.09375,-5.26562c-1.38672,-1.11328 -3.46875,-1.67188 -6.25,-1.67188l-10.17187,0l0,13.9375l10.17187,0zm8.4375,3l17.60938,27.29688l-15.85938,0l-14.10937,-24.125l12.35937,-3.17188zm0,0"/>
          </g>
         </g>
        </g>
        <g fill="#104d72">
         <g transform="translate(58.3053 172.479)">
          <g>
           <path d="m-67.3851,-192.45647l0,-55.07813l42.89063,0l0,11.09375l-28.53125,0l0,11.1875l22.6875,0l0,10.4375l-22.6875,0l0,11.26563l29.625,0l0,11.09375l-43.98438,0zm0,0"/>
          </g>
         </g>
        </g>
        <g fill="#104d72">
         <g transform="translate(110.954 172.479)">
          <g>
           <path d="m-45.85385,-248.36272c5.11328,0 9.62891,0.79297 13.54688,2.375c3.92578,1.58594 7.33593,3.90625 10.23437,6.96875l-6.92187,9.26562c-2.39844,-2.50781 -4.97657,-4.39062 -7.73438,-5.64062c-2.75,-1.25 -5.875,-1.875 -9.375,-1.875c-2.0625,0 -3.73437,0.22656 -5.01562,0.67187c-1.27344,0.4375 -2.1875,1.04688 -2.75,1.82813c-0.55469,0.78125 -0.82813,1.67187 -0.82813,2.67187c0,1.16797 0.53906,2.15625 1.625,2.96875c1.08203,0.80469 2.84766,1.48047 5.29688,2.03125l9.26562,2.09375c5.50781,1.28125 9.53906,3.14844 12.09375,5.59375c2.5625,2.44922 3.84375,5.70313 3.84375,9.76563c0,3.89844 -1.00781,7.19531 -3.01562,9.89062c-2,2.69922 -4.75782,4.73047 -8.26563,6.09375c-3.5,1.35157 -7.5,2.03126 -12,2.03126c-3.67969,0 -7.1875,-0.40235 -10.53125,-1.20313c-3.33594,-0.80078 -6.33594,-1.95313 -9,-3.45313c-2.66797,-1.50781 -4.92187,-3.23828 -6.76562,-5.1875l6.9375,-9.59375c1.38281,1.61719 3.09375,3.04688 5.125,4.29688c2.03125,1.25 4.2539,2.24219 6.67187,2.96875c2.42578,0.71875 4.89063,1.07812 7.39063,1.07812c1.94531,0 3.57031,-0.1914 4.875,-0.57812c1.3125,-0.39453 2.27343,-0.97656 2.89062,-1.75c0.61328,-0.78125 0.92188,-1.70313 0.92188,-2.76563c0,-1.16406 -0.42188,-2.14843 -1.26563,-2.95312c-0.83594,-0.8125 -2.41797,-1.49219 -4.75,-2.04688l-10.1875,-2.25c-3.11719,-0.72656 -5.88281,-1.6914 -8.29687,-2.89062c-2.41797,-1.19531 -4.32422,-2.80469 -5.71875,-4.82813c-1.38672,-2.03125 -2.07813,-4.57812 -2.07813,-7.64062c0,-3.44531 0.94141,-6.51953 2.82813,-9.21875c1.89453,-2.69531 4.625,-4.82031 8.1875,-6.375c3.5625,-1.5625 7.8164,-2.34375 12.76562,-2.34375zm0,0"/>
          </g>
         </g>
        </g>
        <g fill="#104d72">
         <g transform="translate(164.772 172.479)">
          <g>
           <path d="m-67.3851,-192.45647l0,-55.07813l42.89063,0l0,11.09375l-28.53125,0l0,11.1875l22.6875,0l0,10.4375l-22.6875,0l0,11.26563l29.625,0l0,11.09375l-43.98438,0zm0,0"/>
          </g>
         </g>
        </g>
        <g fill="#104d72">
         <g transform="translate(217.421 172.479)">
          <g>
           <path d="m-17.3226,-192.45647l-14.76562,0l-3.84375,-12.4375l-18.85938,0l-3.92187,12.4375l-14.4375,0l19.35937,-55.07813l17.20313,0l19.26562,55.07813zm-34.79687,-22.20313l13.53125,0l-6.76563,-22.28125l-6.76562,22.28125zm0,0"/>
          </g>
         </g>
        </g>
        <g fill="#104d72">
         <g transform="translate(273.908 172.479)">
          <g>
           <path d="m-41.10385,-247.5346c6.57031,0 11.67578,1.54688 15.3125,4.64063c3.64453,3.08594 5.46875,7.18359 5.46875,12.29687c0,5.625 -1.80859,9.91407 -5.42187,12.85938c-3.61719,2.94922 -8.70313,4.42187 -15.26563,4.42187l-1.34375,0.75l-10.92187,0l0,20.10938l-14.10938,0l0,-55.07813l26.28125,0zm-2,24.78125c2.78125,0 4.86328,-0.55078 6.25,-1.65625c1.39453,-1.11328 2.09375,-2.89453 2.09375,-5.34375c0,-2.39453 -0.69922,-4.14843 -2.09375,-5.26562c-1.38672,-1.11328 -3.46875,-1.67188 -6.25,-1.67188l-10.17187,0l0,13.9375l10.17187,0zm8.4375,3l17.60938,27.29688l-15.85938,0l-14.10937,-24.125l12.35937,-3.17188zm0,0"/>
          </g>
         </g>
        </g>
        <g fill="#104d72">
         <g transform="translate(330.813 172.479)">
          <g>
           <path d="m-18.5726,-208.2221c-1.05469,3.83594 -2.75,6.99219 -5.09375,9.46875c-2.33594,2.46875 -5.11719,4.27735 -8.34375,5.42188c-3.21875,1.13281 -6.77734,1.70313 -10.67187,1.70313c-5.5625,0 -10.375,-1.12501 -14.4375,-3.37501c-4.0625,-2.25 -7.1836,-5.48828 -9.35938,-9.71875c-2.16797,-4.22656 -3.25,-9.32031 -3.25,-15.28125c0,-5.94531 1.08203,-11.03515 3.25,-15.26562c2.17578,-4.22656 5.29688,-7.46875 9.35938,-9.71875c4.0625,-2.25 8.84375,-3.375 14.34375,-3.375c3.84375,0 7.3789,0.54297 10.60937,1.625c3.22656,1.08594 5.95313,2.74219 8.17188,4.96875c2.22656,2.21875 3.8164,5.08594 4.76562,8.59375l-12.60937,5.07812c-0.78125,-3.44531 -2.04688,-5.80468 -3.79688,-7.07812c-1.75,-1.28125 -3.96094,-1.92188 -6.625,-1.92188c-2.61719,0 -4.88672,0.64063 -6.8125,1.92188c-1.91797,1.27344 -3.39062,3.17187 -4.42187,5.70312c-1.03125,2.53125 -1.54688,5.6875 -1.54688,9.46875c0,3.73047 0.47266,6.875 1.42188,9.4375c0.94531,2.5625 2.3789,4.48438 4.29687,5.76563c1.91406,1.27344 4.29688,1.90625 7.14063,1.90625c2.66406,0 4.92968,-0.73438 6.79687,-2.20313c1.86328,-1.47656 3.12891,-3.74218 3.79688,-6.79687l13.01562,3.67187zm0,0"/>
          </g>
         </g>
        </g>
        <g fill="#104d72">
         <g transform="translate(387.633 172.479)">
          <g>
           <path d="m-17.65072,-247.5346l0,55.07813l-14.35938,0l0,-55.07813l14.35938,0zm-35.375,0l0,55.07813l-14.35938,0l0,-55.07813l14.35938,0zm28.70312,21.78125l0,11.09375l-36.04687,0l0,-11.09375l36.04687,0zm0,0"/>
          </g>
         </g>
        </g>
        <g fill="#104d72">
         <g transform="translate(449.546 172.479)">
          <g/>
         </g>
        </g>
       </g>
      </g>
     </g>
     <path stroke-miterlimit="4" stroke-width="6" stroke="#abdd1c" d="m-98.02388,-253.74299l558.6408,0" fill="none" transform="matrix(0.749615 0 0 0.749615 246.29 127.366)"/>
    </g>
   </g>
  </g>
 </g>
</svg>